<svg id="Capa_1" enable-background="new 0 0 508.055 508.055" height="512" viewBox="0 0 508.055 508.055" width="512" xmlns="http://www.w3.org/2000/svg"><g><path d="m214.645 350.52c7.138 15.702 15.67 27.383 24.377 33.832v-129.298h-44.682c1.531 36.261 8.605 69.725 20.305 95.466z"/><path d="m293.399 129.589c-7.137-15.703-15.67-27.383-24.377-33.832v129.297h44.683c-1.532-36.261-8.605-69.724-20.306-95.465z"/><path d="m269.022 255.054v129.297c8.707-6.449 17.24-18.129 24.377-33.832 11.701-25.742 18.774-59.205 20.306-95.466h-44.683z"/><path d="m214.645 129.589c-11.7 25.741-18.773 59.204-20.305 95.465h44.682v-129.297c-8.707 6.449-17.239 18.129-24.377 33.832z"/><path d="m423.727 70.348c-93.791-93.792-245.606-93.804-339.41 0-82.648 82.648-92.524 210.362-29.3 303.882l-33.456 133.825 116.111-58.055c90.672 50.318 207.925 37.889 286.055-40.241 93.793-93.792 93.805-245.606 0-339.411zm-169.705 349.706c-99.252 0-180-80.748-180-180s80.748-180 180-180 180 80.748 180 180-80.748 180-180 180z"/><path d="m195.104 102.118c-49.122 21.062-84.816 67.62-90.334 122.936h59.552c1.592-40.567 10.285-87.903 30.782-122.936z"/><path d="m403.275 225.054c-5.518-55.315-41.212-101.874-90.334-122.936 20.501 35.036 29.19 82.384 30.782 122.936z"/><path d="m312.941 377.99c49.122-21.062 84.816-67.621 90.334-122.936h-59.552c-1.593 40.561-10.284 87.904-30.782 122.936z"/><path d="m104.77 255.054c5.518 55.315 41.211 101.874 90.334 122.936-20.49-35.019-29.188-82.349-30.782-122.936z"/></g></svg>